Coordinates
version=1
nRows=24
nColumns=22
inDegrees=yes

Units are S.I. units (second, meters, Newtons, ...)
If the header above contains a line with 'inDegrees', this indicates whether rotational values are in degrees (yes) or radians (no).

endheader
time	pelvis_tilt	pelvis_list	pelvis_rotation	pelvis_tx	pelvis_ty	pelvis_tz	hip_flexion_r	hip_adduction_r	hip_rotation_r	knee_angle_r	ankle_angle_r	subtalar_angle_r	hip_flexion_l	hip_adduction_l	hip_rotation_l	knee_angle_l	ankle_angle_l	subtalar_angle_l	lumbar_extension	lumbar_bending	lumbar_rotation
      0.01000000	      2.19439035	     -0.58209028	      2.55412022	     -0.58422497	      1.08505507	      1.15171377	     -4.59836172	      1.52266039	     -7.77970953	     -9.28779147	     12.92705982	     -2.75050550	     -4.27658325	     -0.66457884	      0.20860391	    -10.24981255	     13.58743270	     -2.31937479	     -2.00406920	     -1.21901736	     -5.16927455
      0.02000000	      2.18279383	     -0.60848236	      2.46271160	     -0.58425553	      1.08503779	      1.15192133	     -4.59649053	      1.54915445	     -7.69478743	     -9.24959319	     12.91495314	     -2.74873865	     -4.25885361	     -0.69064232	      0.12355326	    -10.27210009	     13.59456968	     -2.32611682	     -1.98900653	     -1.19291881	     -5.18786406
      0.03000000	      2.16956896	     -0.64028339	      2.35097084	     -0.58429631	      1.08501668	      1.15216416	     -4.59034695	      1.57992483	     -7.59232872	     -9.21210235	     12.89490034	     -2.74124440	     -4.24180003	     -0.72143385	      0.01941174	    -10.29199854	     13.61722068	     -2.33125929	     -1.97487895	     -1.15958762	     -5.20170739
      0.04000000	      2.15711849	     -0.67449184	      2.23343799	     -0.58432869	      1.08499598	      1.15242530	     -4.58669274	      1.61341659	     -7.48354346	     -9.17211786	     12.87478236	     -2.73125278	     -4.22205241	     -0.75506986	     -0.08981596	    -10.32115575	     13.63997091	     -2.33392453	     -1.96166368	     -1.12483305	     -5.21557484
      0.05000000	      2.14651196	     -0.70850510	      2.11688774	     -0.58435204	      1.08497731	      1.15268669	     -4.58735981	      1.64727907	     -7.37354810	     -9.12944265	     12.85519107	     -2.72002363	     -4.20130288	     -0.78854604	     -0.19844640	    -10.35692833	     13.66389379	     -2.33588551	     -1.95094582	     -1.09049498	     -5.23256981
      0.06000000	      2.13899710	     -0.74228866	      2.00293358	     -0.58434911	      1.08496071	      1.15294516	     -4.59394782	      1.68153672	     -7.26377201	     -9.08605820	     12.83597149	     -2.70789395	     -4.18198412	     -0.82184430	     -0.30467760	    -10.39936924	     13.68774187	     -2.33783425	     -1.94090628	     -1.05723172	     -5.24860877
      0.07000000	      2.13281279	     -0.77554874	      1.89150426	     -0.58434683	      1.08494627	      1.15320026	     -4.60171541	      1.71510917	     -7.15500496	     -9.04281332	     12.81589896	     -2.69472060	     -4.16443659	     -0.85507457	     -0.40947619	    -10.43942833	     13.71305773	     -2.33970684	     -1.93712020	     -1.02405335	     -5.26076383
      0.08000000	      2.13034515	     -0.80513775	      1.79004600	     -0.58431839	      1.08493734	      1.15344398	     -4.61749561	      1.74645543	     -7.05528749	     -8.99738241	     12.79984095	     -2.68162019	     -4.14893343	     -0.88472712	     -0.50456986	    -10.48469084	     13.73407973	     -2.34235395	     -1.93509513	     -0.99658217	     -5.27445547
      0.09000000	      2.12982074	     -0.83472276	      1.69126077	     -0.58427305	      1.08493046	      1.15368685	     -4.63592969	      1.77793832	     -6.95807842	     -8.95307887	     12.78243199	     -2.66783541	     -4.13768921	     -0.91493503	     -0.59828588	    -10.52718446	     13.75577660	     -2.34602459	     -1.93513927	     -0.96999864	     -5.28280174
      0.10000000	      2.13094584	     -0.86427687	      1.59536831	     -0.58421494	      1.08492646	      1.15393588	     -4.65718631	      1.81023615	     -6.86544114	     -8.90865048	     12.76430136	     -2.65371801	     -4.12889623	     -0.94606385	     -0.68918284	    -10.56952128	     13.77725231	     -2.35022684	     -1.93598550	     -0.94567601	     -5.28092266
      0.11000000	      2.13240316	     -0.89311711	      1.50318256	     -0.58414351	      1.08492165	      1.15418949	     -4.67899108	      1.84264071	     -6.78011122	     -8.86617323	     12.74591566	     -2.64034162	     -4.12198167	     -0.97724503	     -0.77564517	    -10.61030407	     13.79856508	     -2.35420096	     -1.93533687	     -0.92427440	     -5.27313754
      0.12000000	      2.12740322	     -0.91415736	      1.42700403	     -0.58406002	      1.08490879	      1.15441684	     -4.70037713	      1.86737701	     -6.72040968	     -8.81440370	     12.73786849	     -2.63091963	     -4.11252336	     -1.00126298	     -0.85611911	    -10.63882378	     13.81617672	     -2.35805126	     -1.92837126	     -0.91222409	     -5.28622449
      0.13000000	      2.12465632	     -0.95385036	      1.32428106	     -0.58401381	      1.08489629	      1.15469492	     -4.71025203	      1.91021820	     -6.62574682	     -8.78100940	     12.70490387	     -2.61734649	     -4.10399885	     -1.04456766	     -0.95196231	    -10.67395220	     13.85052409	     -2.35936842	     -1.93121969	     -0.88052274	     -5.23472897
      0.14000000	      2.11754775	     -0.97986315	      1.24518933	     -0.58395292	      1.08487631	      1.15494635	     -4.72119826	      1.94081791	     -6.56276782	     -8.74232026	     12.68798316	     -2.60900166	     -4.08975642	     -1.07517713	     -1.02916068	    -10.70786546	     13.87304121	     -2.35670695	     -1.92624280	     -0.86855686	     -5.20736807
      0.15000000	      2.10554056	     -1.00663969	      1.16994284	     -0.58389290	      1.08484838	      1.15519553	     -4.72572078	      1.97228823	     -6.50837126	     -8.70560399	     12.66999138	     -2.60341108	     -4.07331313	     -1.10746085	     -1.10254699	    -10.73572097	     13.89831488	     -2.35229634	     -1.91778992	     -0.85649256	     -5.16782476
      0.16000000	      2.09459592	     -1.01816424	      1.12100977	     -0.58384055	      1.08482176	      1.15538413	     -4.73087335	      1.98720976	     -6.50091129	     -8.67113645	     12.66763517	     -2.60214485	     -4.06034055	     -1.12158382	     -1.12776657	    -10.75474966	     13.90608782	     -2.35040384	     -1.91509359	     -0.85868951	     -5.14469189
      0.17000000	      2.07596320	     -1.04942930	      1.04840525	     -0.58379582	      1.08478578	      1.15565504	     -4.72091152	      2.02585111	     -6.41752047	     -8.64848217	     12.63705033	     -2.60140844	     -4.03578847	     -1.16241864	     -1.22517251	    -10.78179836	     13.93706618	     -2.34304406	     -1.90292606	     -0.84746414	     -5.09148117
      0.18000000	      2.06424243	     -1.05572883	      1.01725799	     -0.58372486	      1.08476018	      1.15582918	     -4.72338441	      2.03757896	     -6.41853523	     -8.62261950	     12.63865642	     -2.60290762	     -4.02590913	     -1.17302969	     -1.23686763	    -10.79287172	     13.93816026	     -2.33998110	     -1.89859109	     -0.85946769	     -5.06913106
      0.19000000	      2.04169707	     -1.07064091	      0.96817793	     -0.58365386	      1.08472367	      1.15605021	     -4.71017331	      2.05963095	     -6.36358841	     -8.60334223	     12.61694128	     -2.61145732	     -4.00427607	     -1.19534907	     -1.30223223	    -10.80650236	     13.94706686	     -2.33023385	     -1.88186849	     -0.86471806	     -5.02754877
      0.20000000	      2.03364935	     -1.07258810	      0.95752083	     -0.58358948	      1.08470848	      1.15620512	     -4.70779217	      2.06867190	     -6.36630570	     -8.59730099	     12.61773671	     -2.61165851	     -4.00236548	     -1.20388900	     -1.30217940	    -10.80540164	     13.94692770	     -2.33004027	     -1.88955793	     -0.88156623	     -5.02812265
      0.21000000	      2.00607223	     -1.07712063	      0.93096267	     -0.58346418	      1.08467555	      1.15639895	     -4.69890998	      2.08228131	     -6.33226901	     -8.56777957	     12.59978430	     -2.62802818	     -3.98762676	     -1.21668894	     -1.34631464	    -10.79783802	     13.93466178	     -2.31838481	     -1.86252335	     -0.90003926	     -4.98651794
      0.22000000	      1.99625352	     -1.07793064	      0.92664884	     -0.58338294	      1.08466259	      1.15654802	     -4.69602111	      2.09139790	     -6.33499947	     -8.56134415	     12.60079699	     -2.62843601	     -3.98650238	     -1.22454946	     -1.34806225	    -10.79297205	     13.93474208	     -2.31821416	     -1.87076212	     -0.91602146	     -4.98650974
      0.23000000	      1.97431418	     -1.07785629	      0.92688687	     -0.58322146	      1.08463993	      1.15670080	     -4.69888744	      2.10161986	     -6.34441867	     -8.52731185	     12.59929006	     -2.63396149	     -3.98991751	     -1.23341876	     -1.36598597	    -10.76030728	     13.92790792	     -2.31425529	     -1.85147830	     -0.93517515	     -4.97372472
      0.24000000	      1.95262322	     -1.07721629	      0.92639669	     -0.58307648	      1.08461892	      1.15685541	     -4.69700978	      2.11085055	     -6.34351523	     -8.50195818	     12.58961256	     -2.64086542	     -3.99498307	     -1.24103369	     -1.37738642	    -10.72381336	     13.91517014	     -2.30822137	     -1.83951181	     -0.95341372	     -4.96804946
